{"title":"13HRS  2010 DvDRip H264 Feel-Free","uid":5909870,"size":802703175,"categoryP":"video","categoryS":"movies","magnet":"?xt=urn:btih:beb74830438ec1d8b1e82e0bb13f98a49d20ef56&amp;dn=13HRS++2010+DvDRip+H264+Feel-Free&amp;tr=udp%3A%2F%2Ftracker.openbittorrent.com%3A80&amp;tr=udp%3A%2F%2Fopen.demonii.com%3A1337&amp;tr=udp%3A%2F%2Ftracker.coppersurfer.tk%3A6969&amp;tr=udp%3A%2F%2Fexodus.desync.com%3A6969","seeders":0,"leechers":1,"uploader":"deffjam555","files":7,"time":1287964990,"description":"cover\n &lt;a href=&quot;\nhttp://img28.imageshack.us/img28/8416/13hoursposter.jpg&quot; rel=&quot;nofollow&quot; target=&quot;_NEW&quot;&gt;\nhttp://img28.imageshack.us/img28/8416/13hoursposter.jpg&lt;/a&gt;\nGenre:Action | Horror\nLanguage:English\nIMDb:http://www.imdb.com/title/tt1411232/\nSource:DVD\n\nGeneral\nComplete name :13 HRS 2010 DvDRip H264 Feel-Free\nFormat : MPEG-4\nFormat profile : Base Media / Version 2\nCodec ID : mp42\nFile size : 765 MiB\nDuration : 1h 21mn\nOverall bit rate : 1 315 Kbps\nVideo #1\nCodec ID : avc1\nCodec ID/Info : Advanced Video Coding\nDuration : 1h 21mn\nBit rate mode : Variable\nBit rate : 834 Kbps\nWidth : 720 pixels\nHeight : 384 pixels\nDisplay aspect ratio : 1.875\nFrame rate mode : Constant\nFrame rate : 23.976 fps\nResolution : 24 bits\nColorimetry : 4:2:0\nScan type : Progressive\nBits/(Pixel*Frame) : 0.126\nStream size : 485 MiB (63%)\nAudio #2\nID : 2\nFormat : AAC\nFormat/Info : Advanced Audio Codec\nFormat version : Version 4\nFormat profile : LC\nFormat settings, SBR : No\nCodec ID : 40\nDuration : 1h 21mn\nBit rate mode : Constant\nBit rate : 477 Kbps\nNominal bit rate : 480 Kbps\nChannel(s) : 6 channels\nChannel positions : Front: L C R, Rear: L R, LFE\nSampling rate : 48.0 KHz\nResolution : 16 bits\nStream size : 278 MiB (36%)\n\nPlot:\nSarah Tyler returns to her troubled family home in the isolated countryside, for a much put-off visit. As a storm rages outside, Sarah, her family and friends shore up for the night, cut off from the outside world. But something comes out of the driving rain and darkness. Something that holds a dark secret so devastating that, in one night, it could wipe out the entire family.\n\nscreens\n &lt;a href=&quot;\nhttp://img442.imageshack.us/img442/7870/vlcsnap2010102510h36m32.jpg&quot; rel=&quot;nofollow&quot; target=&quot;_NEW&quot;&gt;\nhttp://img442.imageshack.us/img442/7870/vlcsnap2010102510h36m32.jpg&lt;/a&gt; &lt;a href=&quot;\nhttp://img214.imageshack.us/img214/1792/13hrs2010dvdriph264feel.jpg&quot; rel=&quot;nofollow&quot; target=&quot;_NEW&quot;&gt;\nhttp://img214.imageshack.us/img214/1792/13hrs2010dvdriph264feel.jpg&lt;/a&gt; &lt;a href=&quot;\nhttp://img819.imageshack.us/img819/1792/13hrs2010dvdriph264feel.jpg&quot; rel=&quot;nofollow&quot; target=&quot;_NEW&quot;&gt;\nhttp://img819.imageshack.us/img819/1792/13hrs2010dvdriph264feel.jpg&lt;/a&gt; &lt;a href=&quot;\nhttp://img208.imageshack.us/img208/1792/13hrs2010dvdriph264feel.jpg&quot; rel=&quot;nofollow&quot; target=&quot;_NEW&quot;&gt;\nhttp://img208.imageshack.us/img208/1792/13hrs2010dvdriph264feel.jpg&lt;/a&gt; &lt;a href=&quot;\nhttp://img200.imageshack.us/img200/1792/13hrs2010dvdriph264feel.jpg&quot; rel=&quot;nofollow&quot; target=&quot;_NEW&quot;&gt;\nhttp://img200.imageshack.us/img200/1792/13hrs2010dvdriph264feel.jpg&lt;/a&gt;\n","torrent":{"xt":"urn:btih:beb74830438ec1d8b1e82e0bb13f98a49d20ef56","amp;dn":"13HRS++2010+DvDRip+H264+Feel-Free","amp;tr":["udp%3A%2F%2Ftracker.openbittorrent.com%3A80","udp%3A%2F%2Fopen.demonii.com%3A1337","udp%3A%2F%2Ftracker.coppersurfer.tk%3A6969","udp%3A%2F%2Fexodus.desync.com%3A6969"],"infoHash":"beb74830438ec1d8b1e82e0bb13f98a49d20ef56","infoHashBuffer":{"type":"Buffer","data":[190,183,72,48,67,142,193,216,177,232,46,11,177,63,152,164,157,32,239,86]},"announce":[],"urlList":[]}}